<?xml version="1.0" standalone="no"?>
<!DOCTYPE svg PUBLIC "-//W3C//DTD SVG 20010904//EN"
 "http://www.w3.org/TR/2001/REC-SVG-20010904/DTD/svg10.dtd">
<svg version="1.0" xmlns="http://www.w3.org/2000/svg"
 width="640.000000pt" height="640.000000pt" viewBox="0 0 640.000000 640.000000"
 preserveAspectRatio="xMidYMid meet">

<g transform="translate(0.000000,640.000000) scale(0.100000,-0.100000)"
fill="#000000" stroke="none">
<path d="M1745 5274 c-269 -22 -610 -113 -790 -212 -47 -25 -50 -30 -55 -74
l-5 -47 -92 -45 -93 -45 0 -1739 c0 -1672 1 -1740 18 -1755 26 -24 38 -22 148
27 294 130 575 189 904 189 214 1 357 -17 555 -68 206 -53 376 -123 603 -250
54 -30 73 -35 126 -35 52 0 73 6 117 30 405 228 744 322 1159 323 266 0 436
-25 689 -105 l134 -42 306 -291 c169 -159 356 -337 416 -394 124 -117 182
-151 261 -151 101 0 182 46 227 129 23 42 27 61 27 131 0 67 -4 90 -22 122
-19 34 -800 786 -924 891 l-34 28 0 1479 c0 1172 -3 1480 -12 1487 -7 4 -49
24 -93 44 -71 32 -80 40 -83 65 -7 78 -17 86 -199 160 -612 246 -1339 186
-1900 -157 l-68 -42 -30 18 c-289 174 -533 264 -840 310 -102 15 -360 26 -450
19z m407 -130 c275 -35 532 -125 781 -272 l78 -46 -3 -130 -3 -130 -81 -46
c-44 -25 -94 -55 -111 -67 l-31 -23 -93 45 c-436 206 -937 237 -1384 86 -100
-33 -110 -39 -113 -63 -5 -40 21 -41 120 -7 122 42 287 75 439 89 234 22 517
-17 759 -104 69 -25 200 -88 200 -96 0 -4 -16 -20 -35 -35 l-36 -27 -62 25
c-88 35 -215 72 -337 99 -92 20 -134 22 -345 23 -255 0 -359 -13 -532 -66
-146 -45 -173 -58 -173 -85 0 -14 7 -27 15 -30 9 -4 59 8 112 26 178 59 309
81 510 87 207 6 316 -4 492 -47 98 -24 247 -73 259 -85 2 -2 -26 -38 -62 -81
-36 -42 -89 -113 -118 -156 -50 -76 -54 -79 -83 -73 -182 37 -217 40 -430 40
-263 0 -399 -23 -622 -101 -64 -23 -73 -29 -73 -50 0 -14 7 -27 16 -31 9 -3
61 9 116 27 56 18 155 44 222 58 108 23 144 26 336 27 170 0 237 -4 320 -19
58 -11 106 -20 108 -22 2 -1 -8 -24 -22 -51 l-25 -50 -78 15 c-116 23 -468 22
-593 -1 -121 -22 -264 -60 -338 -89 -48 -20 -57 -27 -57 -48 0 -22 4 -25 35
-23 19 0 87 17 150 36 182 55 289 71 500 71 114 1 217 -4 268 -13 83 -14 84
-14 79 -40 -12 -56 -27 -83 -43 -77 -9 3 -81 12 -160 18 -236 20 -485 -12
-719 -90 -100 -34 -110 -39 -113 -63 -5 -40 20 -42 112 -10 220 78 496 112
730 92 78 -7 143 -14 145 -17 2 -2 -3 -47 -12 -101 -9 -54 -19 -142 -23 -196
-7 -94 -8 -98 -28 -93 -12 3 -77 8 -146 12 -212 11 -453 -23 -665 -94 -100
-34 -110 -39 -113 -63 -5 -41 19 -42 131 -4 246 82 560 113 789 78 36 -5 36
-6 40 -57 2 -28 4 -52 3 -54 -1 -1 -61 2 -133 7 -241 17 -479 -12 -712 -88
-107 -34 -115 -39 -118 -64 -2 -17 2 -29 12 -33 8 -3 63 10 123 30 147 47 288
75 435 85 125 8 386 -3 400 -17 5 -5 14 -32 22 -61 l14 -53 -32 6 c-17 3 -116
9 -221 12 -224 7 -352 -7 -548 -61 -156 -42 -201 -63 -205 -93 -5 -36 23 -37
126 -4 208 67 365 92 569 92 134 0 294 -15 321 -29 7 -4 32 -54 56 -112 78
-192 189 -356 344 -506 52 -51 99 -93 104 -93 4 0 8 -4 8 -9 0 -6 -26 2 -57
15 -83 37 -275 90 -416 116 -164 30 -525 33 -688 5 -143 -24 -305 -67 -435
-116 -59 -23 -109 -41 -111 -41 -2 0 -3 677 -3 1504 l0 1503 103 41 c188 74
366 121 540 141 123 14 368 12 499 -5z m2345 1 c65 -9 156 -25 203 -36 161
-37 394 -123 412 -152 7 -11 7 -1210 1 -1203 -2 1 -26 49 -53 106 -70 141
-156 263 -274 388 -56 58 -92 102 -81 98 79 -31 207 -67 220 -62 19 7 20 40 1
55 -21 17 -138 55 -266 85 -75 18 -128 37 -155 56 -22 15 -73 44 -114 64 -40
21 -71 39 -70 40 2 2 54 -2 114 -9 127 -15 251 -43 383 -86 75 -24 96 -28 108
-18 8 7 14 21 12 32 -2 16 -22 27 -83 48 -197 68 -378 99 -595 104 -104 2
-169 9 -230 24 -47 11 -114 24 -149 27 -80 9 -64 18 65 38 294 46 575 24 860
-68 114 -37 138 -36 132 8 -4 25 -72 52 -243 96 -169 44 -254 54 -455 54 -232
0 -390 -24 -580 -89 -41 -14 -124 -32 -185 -40 -109 -15 -224 -42 -298 -70
-20 -8 -42 -15 -47 -15 -6 0 -10 43 -10 104 l0 103 58 36 c251 154 531 249
867 290 82 10 346 5 452 -8z m-3597 -1819 c0 -1377 1 -1486 17 -1501 12 -12
27 -16 55 -12 l38 5 0 -61 c0 -67 17 -97 55 -97 12 0 55 15 96 34 377 174 847
215 1264 110 184 -47 390 -135 558 -239 39 -25 76 -45 82 -45 6 0 42 20 81 44
38 24 101 59 139 79 l70 35 80 -15 c128 -25 375 -22 514 6 122 24 241 58 336
98 78 33 240 123 289 162 36 29 56 32 56 10 0 -5 -4 -9 -9 -9 -6 0 -40 -19
-76 -42 -66 -42 -67 -43 -39 -50 16 -4 85 -21 154 -38 69 -17 134 -37 145 -45
41 -28 159 -146 141 -140 -141 44 -388 75 -604 75 -413 0 -840 -115 -1173
-316 -86 -52 -122 -48 -256 26 -270 150 -565 243 -893 281 -167 19 -484 7
-650 -25 -181 -34 -372 -92 -533 -161 -16 -7 -17 75 -17 1637 l0 1644 33 17
c17 8 35 16 40 16 4 1 7 -667 7 -1483z m4370 1469 l30 -16 1 -1362 c0 -749 3
-1373 5 -1387 4 -23 2 -22 -36 15 l-40 39 0 1363 c0 750 2 1363 5 1363 4 0 19
-7 35 -15z m-1435 -174 c15 -6 10 -9 -24 -15 -56 -9 -232 -67 -301 -100 -30
-14 -44 -24 -30 -21 14 3 68 10 120 15 101 11 150 20 295 51 144 31 185 29
302 -15 56 -21 110 -44 120 -52 16 -13 13 -14 -37 -13 -87 1 -167 -3 -145 -8
11 -3 58 -17 105 -33 47 -15 121 -31 165 -35 74 -6 84 -9 145 -53 36 -25 106
-87 155 -137 242 -242 384 -542 416 -880 44 -477 -132 -923 -486 -1228 -113
-98 -117 -101 -180 -139 -257 -154 -489 -221 -770 -222 -302 0 -594 91 -840
262 -117 82 -288 257 -368 378 -56 84 -124 214 -150 287 -7 19 -8 19 49 3 20
-6 21 -5 11 33 -10 35 -15 41 -53 50 -38 10 -42 14 -53 55 -17 67 -16 69 29
61 43 -7 46 -3 34 43 -5 16 -18 25 -49 33 -46 12 -55 25 -55 88 0 33 0 33 38
26 20 -4 41 -7 46 -8 5 -1 9 14 9 33 1 35 0 35 -53 44 l-53 9 6 111 c4 61 14
150 23 197 l16 87 51 -14 c70 -19 71 -18 84 16 13 35 14 34 -59 50 -32 7 -58
14 -58 15 0 18 35 95 43 95 7 0 37 -7 67 -15 30 -8 54 -13 55 -12 13 30 25 59
25 61 0 2 -29 11 -65 21 l-64 17 24 49 25 49 65 -24 65 -24 21 29 21 29 -34
14 c-18 7 -46 18 -63 23 -18 6 -29 17 -29 26 2 21 100 155 169 232 l54 60 65
-34 c72 -38 99 -37 94 5 -2 19 -15 32 -46 49 -24 13 -46 25 -48 28 -10 10 243
187 268 187 4 0 8 -36 8 -80 l0 -80 53 30 52 29 3 80 c2 64 6 81 20 86 26 11
155 55 160 55 2 0 2 -7 -2 -15 -7 -20 21 -46 42 -37 9 4 51 25 92 46 41 21 86
42 100 47 33 10 279 10 305 0z m1283 -2216 c0 -241 6 -227 -68 -157 -19 18
-47 40 -62 50 -16 9 -28 20 -28 24 0 4 16 33 36 63 37 59 98 180 107 215 3 11
7 20 10 20 3 0 5 -97 5 -215z m-154 -201 c17 -14 69 -63 116 -108 47 -45 213
-203 370 -351 813 -767 847 -800 861 -843 26 -79 -12 -171 -84 -206 -45 -21
-113 -20 -154 2 -17 9 -114 96 -215 192 -100 97 -264 252 -363 345 -99 93
-223 210 -275 260 -52 50 -140 134 -195 185 -274 258 -325 308 -325 319 0 3
16 15 36 26 49 26 144 121 169 168 11 20 21 37 23 37 2 0 18 -12 36 -26z
m-2907 -184 c262 -23 510 -95 750 -215 81 -41 159 -84 173 -96 14 -11 -22 5
-80 35 -280 147 -560 221 -880 233 -303 11 -564 -37 -873 -162 -16 -7 -18 -3
-15 31 l3 38 112 38 c257 86 546 121 810 98z m1123 -298 c0 -8 -43 -32 -58
-32 -6 0 49 40 56 40 1 0 2 -4 2 -8z"/>
<path d="M1740 4833 c-157 -15 -291 -42 -432 -87 -98 -32 -118 -42 -118 -65 0
-41 22 -42 135 -5 460 149 926 116 1362 -96 123 -60 143 -62 143 -15 0 18 -20
32 -114 79 -297 147 -671 219 -976 189z"/>
<path d="M1633 4275 c-158 -24 -393 -88 -430 -118 -18 -13 -16 -46 3 -54 9 -3
68 11 132 31 225 70 387 92 621 83 91 -4 200 -14 241 -22 95 -19 126 -19 134
0 8 21 -3 43 -22 49 -133 39 -510 57 -679 31z"/>
<path d="M1743 3449 c-119 -9 -274 -38 -388 -73 -150 -46 -160 -50 -163 -79
-2 -17 2 -29 11 -33 8 -3 66 11 128 31 152 48 277 72 438 85 74 6 138 13 143
16 4 3 8 14 8 24 0 21 -29 41 -57 39 -10 -1 -64 -5 -120 -10z"/>
<path d="M1676 2610 c-141 -17 -386 -79 -458 -116 -31 -16 -38 -51 -13 -61 9
-3 77 13 153 36 155 46 285 69 446 79 l111 7 0 30 0 30 -85 1 c-47 1 -116 -2
-154 -6z"/>
</g>
</svg>
